<svg width="32" height="32" viewBox="0 0 32 32" fill="none" xmlns="http://www.w3.org/2000/svg">
    <path d="M2.66602 7.99967C2.66602 7.29243 2.94697 6.61415 3.44706 6.11406C3.94716 5.61396 4.62544 5.33301 5.33268 5.33301H26.666C27.3733 5.33301 28.0515 5.61396 28.5516 6.11406C29.0517 6.61415 29.3327 7.29243 29.3327 7.99967V23.9997C29.3327 24.7069 29.0517 25.3852 28.5516 25.8853C28.0515 26.3854 27.3733 26.6663 26.666 26.6663H5.33268C4.62544 26.6663 3.94716 26.3854 3.44706 25.8853C2.94697 25.3852 2.66602 24.7069 2.66602 23.9997V7.99967ZM7.35802 7.99967L15.9993 15.561L24.6407 7.99967H7.35802ZM26.666 9.77167L16.878 18.337C16.6349 18.55 16.3226 18.6675 15.9993 18.6675C15.6761 18.6675 15.3638 18.55 15.1207 18.337L5.33268 9.77167V23.9997H26.666V9.77167Z" fill="#425046"/>
</svg>
