<svg width="28" height="28" viewBox="0 0 28 28" fill="none" xmlns="http://www.w3.org/2000/svg">
    <path d="M2 4.66667C2 3.95942 2.28095 3.28115 2.78105 2.78105C3.28115 2.28095 3.95942 2 4.66667 2H9.04C9.31972 2.00021 9.5923 2.0884 9.81914 2.25207C10.046 2.41574 10.2156 2.64661 10.304 2.912L12.3013 8.90267C12.4025 9.20712 12.3906 9.53785 12.2676 9.83419C12.1447 10.1305 11.919 10.3726 11.632 10.516L8.62267 12.0227C10.0981 15.2876 12.7134 17.9025 15.9787 19.3773L17.4827 16.368C17.6261 16.081 17.8681 15.8553 18.1645 15.7324C18.4608 15.6094 18.7915 15.5975 19.096 15.6987L25.088 17.696C25.3536 17.7845 25.5846 17.9543 25.7483 18.1814C25.912 18.4085 26.0001 18.6814 26 18.9613V23.3333C26 24.0406 25.719 24.7189 25.219 25.219C24.7189 25.719 24.0406 26 23.3333 26H22C10.9547 26 2 17.0453 2 6V4.66667Z" stroke="#425046" stroke-width="2.79365" stroke-linecap="round" stroke-linejoin="round"/>
</svg>
