<svg width="22" height="22" viewBox="0 0 22 22" fill="none" xmlns="http://www.w3.org/2000/svg">
    <g clip-path="url(#clip0_376_1728)">
        <path d="M11 0C4.925 0 0 4.925 0 11C0 17.075 4.925 22 11 22C17.075 22 22 17.075 22 11C22 4.925 17.075 0 11 0ZM11 2C15.9705 2 20 6.0295 20 11C20 15.9705 15.9705 20 11 20C6.0295 20 2 15.9705 2 11C2 6.0295 6.0295 2 11 2ZM15.5205 6.66895C15.2665 6.63965 14.9474 6.70927 14.5908 6.83789C13.9393 7.07289 5.61186 10.609 5.13086 10.8135C4.67536 11.0075 4.24366 11.2189 4.24316 11.5244C4.24316 11.7394 4.37066 11.8608 4.72266 11.9863C5.08866 12.1173 6.01164 12.3964 6.55664 12.5469C7.08164 12.6914 7.67867 12.5654 8.01367 12.3574C8.36817 12.1369 12.4643 9.39625 12.7578 9.15625C13.0513 8.91625 13.2859 9.22434 13.0459 9.46484C12.8059 9.70534 9.99405 12.4325 9.62305 12.8105C9.17305 13.2695 9.49292 13.745 9.79492 13.9355C10.1394 14.153 12.6197 15.816 12.9932 16.083C13.3667 16.35 13.7448 16.4707 14.0918 16.4707C14.4388 16.4707 14.6214 16.0134 14.7939 15.4834C14.9964 14.8629 15.945 8.67603 16.0615 7.45703C16.097 7.08753 15.9805 6.84192 15.752 6.73242C15.6828 6.6993 15.6052 6.67871 15.5205 6.66895Z" fill="white"/>
    </g>
    <defs>
        <clipPath id="clip0_376_1728">
            <rect width="22.0001" height="22.0006" fill="white"/>
        </clipPath>
    </defs>
</svg>
