<svg width="32" height="32" viewBox="0 0 32 32" fill="none" xmlns="http://www.w3.org/2000/svg">
    <path d="M7.95697 7.95452L7.95673 7.95476C5.82297 10.0886 4.62395 12.9825 4.62331 16.0001L7.95697 7.95452ZM7.95697 7.95452C10.0881 5.82193 12.9842 4.62233 16.0011 4.62233C19.018 4.62233 21.914 5.82193 24.0452 7.95452L24.0455 7.95484C26.1788 10.0878 27.3789 12.984 27.3789 16.0001C27.3789 19.0162 26.1788 21.9124 24.0455 24.0454L24.0452 24.0457C21.914 26.1783 19.018 27.3779 16.0011 27.3779C12.9842 27.3779 10.0881 26.1783 7.95697 24.0457L7.95666 24.0454M7.95697 7.95452L7.95666 24.0454M7.95666 24.0454C5.82339 21.9125 4.62336 19.0164 4.62331 16.0003L7.95666 24.0454Z" stroke="#425046" stroke-width="2.13333"/>
    <path d="M10.788 14.9528C14.0337 13.548 16.1975 12.6218 17.2794 12.1743C20.372 10.8965 21.0138 10.6746 21.433 10.6671C21.5252 10.6656 21.7304 10.6882 21.8644 10.7958C21.9757 10.8866 22.007 11.0093 22.0227 11.0954C22.0366 11.1815 22.0557 11.3777 22.0401 11.5308C21.8731 13.2799 21.1478 17.5245 20.779 19.4836C20.6242 20.3126 20.3163 20.5905 20.0189 20.6176C19.3718 20.6767 18.8813 20.1931 18.2552 19.7854C17.2759 19.1471 16.7228 18.7499 15.7713 18.1272C14.672 17.4075 15.3852 17.0119 16.0113 16.3654C16.1748 16.1962 19.024 13.6218 19.0779 13.3883C19.0848 13.3591 19.0918 13.2502 19.0257 13.1928C18.9613 13.1353 18.8657 13.155 18.7961 13.1705C18.697 13.1927 17.1332 14.2207 14.0998 16.2545C13.6562 16.5576 13.2544 16.7054 12.8926 16.6976C12.496 16.6892 11.7307 16.4743 11.1619 16.2908C10.4662 16.0656 9.91131 15.9465 9.96001 15.564C9.98436 15.3649 10.2609 15.1611 10.788 14.9528Z" fill="#425046"/>
</svg>
